<svg id="Layer_1" data-name="Layer 1" xmlns="http://www.w3.org/2000/svg" viewBox="0 0 83.8 83.8"><defs><style>.cls-1{fill:#032952;}.cls-2{fill:#fefefe;fill-rule:evenodd;}</style></defs><path class="cls-1" d="M83.8,41.9A41.9,41.9,0,1,1,41.9,0,41.9,41.9,0,0,1,83.8,41.9Z"/><path class="cls-2" d="M44.91,37.92c.2-.23.28-.29.34-.38,2.83-4.12,6.86-5.33,11.57-4.61,5.44.84,8.93,4.65,9.82,10.48A27.64,27.64,0,0,1,67,47.57c0,5.81,0,11.61,0,17.41,0,.66-.15.85-.82.84-3,0-6.09,0-9.13,0-.66,0-.83-.18-.83-.84,0-5.41,0-10.82,0-16.23a12.85,12.85,0,0,0-.43-3.65,5.25,5.25,0,0,0-8.55-2.62A6.4,6.4,0,0,0,44.9,47.8c0,5.11,0,10.21,0,15.32,0,.67,0,1.34,0,2s-.2.69-.72.68q-4.65,0-9.29,0c-.56,0-.77-.11-.76-.73q.06-6.9.07-13.81,0-8.49,0-17c0-.62.12-.81.76-.8,3.1,0,6.2,0,9.29,0,.56,0,.71.16.7.7C44.88,35.37,44.91,36.54,44.91,37.92Z"/><path class="cls-2" d="M28.26,49.66c0,5.1,0,10.21,0,15.31,0,.63-.12.86-.81.85-3.07,0-6.14,0-9.21,0-.57,0-.76-.14-.76-.74q0-15.44,0-30.87c0-.54.13-.72.69-.71,3.13,0,6.25,0,9.37,0,.63,0,.72.22.72.77C28.25,39.4,28.26,44.53,28.26,49.66Z"/><path class="cls-2" d="M23,17.94c4.12,0,6.79,3.26,5.82,7.09-.74,2.88-3.72,4.55-7.17,4a5.53,5.53,0,0,1-4.35-7.62A5.78,5.78,0,0,1,23,17.94Z"/></svg>