<svg id="Layer_1" data-name="Layer 1" xmlns="http://www.w3.org/2000/svg" viewBox="0 0 83.8 83.8"><defs><style>.cls-1{fill:#032952;}.cls-2{fill:#fff;}</style></defs><path class="cls-1" d="M83.8,41.9A41.9,41.9,0,1,1,41.9,0,41.9,41.9,0,0,1,83.8,41.9Z"/><circle class="cls-2" cx="41.9" cy="34.78" r="2.37"/><path class="cls-2" d="M52.58,27.67a1.19,1.19,0,0,1-1.19-1.19v-8.3H24.11a1.18,1.18,0,0,0-1.19,1.18V64.44a1.19,1.19,0,0,0,1.19,1.19H59.7a1.18,1.18,0,0,0,1.18-1.19V27.67ZM38.21,37.73a4.7,4.7,0,0,1-1.05-2.95,4.75,4.75,0,1,1,8.43,2.95A5.92,5.92,0,0,1,49,43.09a1.18,1.18,0,0,1-1.19,1.18H36a1.18,1.18,0,0,1-1.19-1.18A5.92,5.92,0,0,1,38.21,37.73ZM52.58,56.14H31.23a1.19,1.19,0,0,1,0-2.38H52.58a1.19,1.19,0,0,1,0,2.38Zm0-4.75H31.23a1.19,1.19,0,1,1,0-2.37H52.58a1.19,1.19,0,0,1,0,2.37Z"/><polygon class="cls-2" points="53.76 18.87 53.76 25.29 60.19 25.29 53.76 18.87"/><path class="cls-2" d="M43.09,39.53H40.72a3.57,3.57,0,0,0-3.36,2.37h9.08A3.55,3.55,0,0,0,43.09,39.53Z"/></svg>