<svg id="Layer_1" data-name="Layer 1" xmlns="http://www.w3.org/2000/svg" viewBox="0 0 83.8 83.8"><defs><style>.cls-1{fill:#032952;}.cls-2{fill:#f4f6f9;}</style></defs><path class="cls-1" d="M83.8,41.9A41.9,41.9,0,1,1,41.9,0,41.9,41.9,0,0,1,83.8,41.9Z"/><path id="Github" class="cls-2" d="M68.24,44.37l.05-.46a48.67,48.67,0,0,0-8.18-.08,14.62,14.62,0,0,0,.64-4.62,13.78,13.78,0,0,0-3.23-8.94,14.39,14.39,0,0,0-.62-6.74,15,15,0,0,0-7.55,2.7,30.72,30.72,0,0,0-12.56,0,14.86,14.86,0,0,0-7.7-2.7,13.2,13.2,0,0,0-.23,7.31,11.14,11.14,0,0,0-3,8.22,14.29,14.29,0,0,0,.81,4.76,48.2,48.2,0,0,0-8,.09l.05.46a46.65,46.65,0,0,1,8.18-.08c.1.23.2.46.31.69a29.84,29.84,0,0,0-7.93.77l.11.44a29.71,29.71,0,0,1,8.09-.74c1.95,3.43,5.72,5.45,11.21,6.1a5.39,5.39,0,0,0-2.13,3.59H33.6c-3.91,0-5-4.92-9-4.43,3.93,1.92,3.15,8.07,9.42,8.07h2.64v5.63a2.08,2.08,0,0,1-1,1.94c2.25.23,3.94-.88,3.94-2.25V56.66a.75.75,0,0,1,.7-.72v8.7a2.37,2.37,0,0,1-.85,1.83c2,.07,3.85-.32,3.93-2V56.16c0-.41.7-.42.7,0V64.1c0,1.4,1.24,2.54,3.84,2.37a2.2,2.2,0,0,1-.9-1.93v-8.6a.67.67,0,0,1,.71.72v7.25c0,1.62,2,2.28,4.2,2.22a2.56,2.56,0,0,1-1.23-2.06V55.35A5.74,5.74,0,0,0,49,51.74c5-.77,8.64-2.75,10.44-6.3a29.89,29.89,0,0,1,8.11.75l.11-.44a30,30,0,0,0-8-.77c.1-.23.2-.45.28-.69A47.8,47.8,0,0,1,68.24,44.37Zm-41.9,7.07c-.12,0-.23-.07-.23-.15s.11-.16.23-.16.22.07.22.16S26.46,51.44,26.34,51.44Zm.7.48c-.13,0-.25-.08-.25-.18s.11-.17.25-.17.25.08.25.17S27.18,51.92,27,51.92Zm.71.61c-.16,0-.29-.09-.29-.2s.13-.21.29-.21.3.09.3.21S27.91,52.53,27.75,52.53Zm.7.74c-.19,0-.34-.11-.34-.24s.15-.24.34-.24.34.11.34.24S28.63,53.27,28.45,53.27Zm.76.84c-.21,0-.38-.12-.38-.27s.17-.27.38-.27.38.12.38.27S29.42,54.11,29.21,54.11Zm.88.85a.32.32,0,1,1,0-.6.39.39,0,0,1,.43.3C30.51,54.82,30.33,55,30.09,55Zm1.2.8c-.26,0-.47-.14-.47-.33s.21-.32.47-.32.47.14.47.32S31.55,55.76,31.29,55.76Zm1.48.43c-.25,0-.47-.14-.47-.32s.22-.33.47-.33.47.15.47.33S33,56.19,32.77,56.19Zm1.56.05c-.25,0-.46-.14-.46-.32s.21-.33.46-.33.47.14.47.33S34.59,56.24,34.33,56.24Zm1.55,0c-.26,0-.47-.14-.47-.33s.21-.32.47-.32.46.14.46.32S36.13,56.27,35.88,56.27Z"/></svg>